<?xml version="1.0" encoding="UTF-8" standalone="no"?>
<!DOCTYPE svg PUBLIC "-//W3C//DTD SVG 1.1//EN" "http://www.w3.org/Graphics/SVG/1.1/DTD/svg11.dtd">
<svg version="1.1" xmlns="http://www.w3.org/2000/svg" xmlns:xlink="http://www.w3.org/1999/xlink" preserveAspectRatio="xMidYMid meet" viewBox="0 0 100 100" width="75" height="75"><defs><path d="M100 50C100 77.6 77.6 100 50 100C22.4 100 0 77.6 0 50C0 22.4 22.4 0 50 0C77.6 0 100 22.4 100 50Z" id="etTepKdsQ"></path><path d="M38.4 26.01L54.06 76.89L45.09 79.66L29.42 28.77L38.4 26.01Z" id="beGamXnx7"></path><path d="M18.92 26.01L37.9 26.01L37.9 34.31L18.92 34.31L18.92 26.01Z" id="d4ivbeWBgG"></path><path d="M61.77 26.01L46.11 76.89L55.08 79.66L70.75 28.77L61.77 26.01Z" id="aoyr29hPQ"></path><path d="M81.08 26.01L62.1 26.01L62.1 34.31L81.08 34.31L81.08 26.01Z" id="clLZxkQL"></path><path d="M54.91 71.35L45.52 71.35L45.52 79.66L54.91 79.66L54.91 71.35Z" id="f3TH8B8tnq"></path><path d="M57.36 40.95L78.31 29.39L79.71 31.91L58.75 43.47L57.36 40.95Z" id="e5eYGW7Nn"></path><path d="M42.63 40.95L21.67 29.39L20.28 31.91L41.24 43.48L42.63 40.95Z" id="b3uMWsqKWW"></path><path d="M-32.99 58.59C-32.83 58.25 -32.62 57.95 -32.38 57.7C-31.46 56.75 -30 56.44 -28.73 57.02C-25.98 58.3 -19.1 61.48 -8.1 66.57L-7.9 69.4C-8.34 69.54 -8.61 69.62 -8.72 69.66C-9.33 69.85 -9.98 69.81 -10.56 69.54C-15.09 67.44 -28.12 61.42 -32.73 59.29C-32.99 59.17 -33.11 58.85 -32.99 58.59C-33.13 58.91 -33.13 58.91 -32.99 58.59Z" id="agkKf53aN"></path><path d="M-6.82 75.91L-6.82 78.65C-7.25 78.82 -7.52 78.93 -7.62 78.98C-8.11 79.18 -8.67 79.17 -9.15 78.95C-12.95 77.19 -22.32 72.85 -25.81 71.24C-27.11 70.64 -27.68 69.09 -27.08 67.78C-26.99 67.58 -27.83 69.39 -27.74 69.21C-27.11 67.86 -25.51 67.27 -24.16 67.89C-21.85 68.96 -16.07 71.63 -6.82 75.91Z" id="a4INfTeFpw"></path><path d="M92.59 51.01C92.43 50.67 92.23 50.37 91.98 50.12C91.06 49.17 89.61 48.86 88.34 49.45C85.58 50.72 78.71 53.9 67.7 58.99L67.5 61.82C67.94 61.96 68.21 62.04 68.32 62.08C68.93 62.27 69.59 62.23 70.17 61.96C74.7 59.87 87.72 53.84 92.33 51.71C92.6 51.59 92.71 51.27 92.59 51.01C92.74 51.33 92.74 51.33 92.59 51.01Z" id="c22mW443SX"></path><path d="M87.48 61.9C87.42 61.76 87.36 61.62 87.28 61.48C86.64 60.42 85.32 59.94 84.12 60.39C81.82 61.26 76.06 63.44 66.84 66.92L66.68 69.64C67.09 69.85 67.34 69.98 67.45 70.04C67.9 70.27 68.43 70.31 68.91 70.12C72.71 68.69 83.09 64.77 86.82 63.36C87.41 63.14 87.7 62.49 87.48 61.9C87.74 62.61 87.74 62.61 87.48 61.9Z" id="a2VBtwMJUH"></path><path d="M-28.21 7.63C-28.05 7.29 -27.84 6.99 -27.6 6.74C-26.68 5.79 -25.22 5.48 -23.95 6.07C-21.2 7.34 -14.32 10.52 -3.32 15.61L-3.12 18.44C-3.56 18.58 -3.83 18.66 -3.94 18.7C-4.55 18.89 -5.21 18.85 -5.78 18.58C-10.31 16.49 -23.34 10.46 -27.95 8.33C-28.21 8.21 -28.33 7.89 -28.21 7.63C-28.35 7.95 -28.35 7.95 -28.21 7.63Z" id="d1A645jSTn"></path><path d="M-23.34 17.33C-23.28 17.18 -23.2 17.05 -23.11 16.92C-22.4 15.91 -21.05 15.52 -19.89 16.06C-17.65 17.09 -12.06 19.68 -3.12 23.81L-3.15 26.53C-3.58 26.72 -3.84 26.83 -3.95 26.88C-4.42 27.08 -4.95 27.08 -5.42 26.86C-9.1 25.16 -19.17 20.5 -22.79 18.82C-23.36 18.56 -23.61 17.89 -23.34 17.33C-23.66 18.01 -23.66 18.01 -23.34 17.33Z" id="bUmH8vidq"></path><path d="M7.67 51.01C7.83 50.67 8.04 50.37 8.28 50.12C9.2 49.17 10.66 48.86 11.93 49.45C14.68 50.72 21.56 53.9 32.56 58.99L32.76 61.82C32.32 61.96 32.05 62.04 31.94 62.08C31.33 62.27 30.67 62.23 30.1 61.96C25.57 59.87 12.54 53.84 7.93 51.71C7.67 51.59 7.55 51.27 7.67 51.01C7.52 51.33 7.52 51.33 7.67 51.01Z" id="a1D94dSoT3"></path><path d="M12.78 61.9C12.84 61.76 12.91 61.62 12.99 61.48C13.62 60.42 14.94 59.94 16.14 60.39C18.44 61.26 24.2 63.44 33.42 66.92L33.58 69.64C33.17 69.85 32.92 69.98 32.82 70.04C32.36 70.27 31.83 70.31 31.35 70.12C27.56 68.69 17.17 64.77 13.44 63.36C12.86 63.14 12.56 62.49 12.78 61.9C12.52 62.61 12.52 62.61 12.78 61.9Z" id="cJ8f9hMGI"></path></defs><g><g><g><use xlink:href="#etTepKdsQ" opacity="1" fill="#1883de" fill-opacity="1"></use></g><g><g><use xlink:href="#beGamXnx7" opacity="1" fill="#ffffff" fill-opacity="1"></use></g><g><use xlink:href="#d4ivbeWBgG" opacity="1" fill="#ffffff" fill-opacity="1"></use></g><g><use xlink:href="#aoyr29hPQ" opacity="1" fill="#ffffff" fill-opacity="1"></use></g><g><use xlink:href="#clLZxkQL" opacity="1" fill="#ffffff" fill-opacity="1"></use></g><g><use xlink:href="#f3TH8B8tnq" opacity="1" fill="#ffffff" fill-opacity="1"></use></g><g><use xlink:href="#e5eYGW7Nn" opacity="1" fill="#ffffff" fill-opacity="1"></use></g><g><use xlink:href="#b3uMWsqKWW" opacity="1" fill="#ffffff" fill-opacity="1"></use></g></g><g><g><use xlink:href="#agkKf53aN" opacity="1" fill="#ffffff" fill-opacity="1"></use></g><g><use xlink:href="#a4INfTeFpw" opacity="1" fill="#ffffff" fill-opacity="1"></use></g></g><g><g><use xlink:href="#c22mW443SX" opacity="1" fill="#ffffff" fill-opacity="1"></use></g><g><use xlink:href="#a2VBtwMJUH" opacity="1" fill="#ffffff" fill-opacity="1"></use></g></g><g><g><use xlink:href="#d1A645jSTn" opacity="1" fill="#ffffff" fill-opacity="1"></use></g><g><use xlink:href="#bUmH8vidq" opacity="1" fill="#ffffff" fill-opacity="1"></use></g></g><g><g><use xlink:href="#a1D94dSoT3" opacity="1" fill="#ffffff" fill-opacity="1"></use></g><g><use xlink:href="#cJ8f9hMGI" opacity="1" fill="#ffffff" fill-opacity="1"></use></g></g></g></g></svg>