<?xml version="1.0" encoding="UTF-8" standalone="no"?>
<!DOCTYPE svg PUBLIC "-//W3C//DTD SVG 1.1//EN" "http://www.w3.org/Graphics/SVG/1.1/DTD/svg11.dtd">
<svg version="1.1" xmlns="http://www.w3.org/2000/svg" xmlns:xlink="http://www.w3.org/1999/xlink" preserveAspectRatio="xMidYMid meet" viewBox="0 0 48 48" width="45" height="45"><defs><path d="" id="iVvpeyPGQ"></path><path d="M-47.62 -6.92L-46.87 -6.92L-46.87 -4.85L-47.62 -4.85L-47.62 -6.92Z" id="c2Kh0eRMl0"></path><path d="M-47.62 -13.52L-46.87 -13.52L-46.87 -11.44L-47.62 -11.44L-47.62 -13.52Z" id="apIUNi7Ko"></path><path d="M-48.23 -12.33L-46.25 -12.33L-46.25 -6.05L-48.23 -6.05L-48.23 -12.33Z" id="a1FAZJ8qgx"></path><path d="M-76.75 -16.35L-76 -16.35L-76 -14.28L-76.75 -14.28L-76.75 -16.35Z" id="bcT14wQ5V"></path><path d="M-76.75 -22.95L-76 -22.95L-76 -20.87L-76.75 -20.87L-76.75 -22.95Z" id="lfeNC9xeK"></path><path d="M-77.37 -21.76L-75.39 -21.76L-75.39 -15.47L-77.37 -15.47L-77.37 -21.76Z" id="ay5WFyik"></path><path d="M-27.23 -6.29L-26.48 -6.29L-26.48 -4.21L-27.23 -4.21L-27.23 -6.29Z" id="i26GBQSKpJ"></path><path d="M-27.23 -12.88L-26.48 -12.88L-26.48 -10.81L-27.23 -10.81L-27.23 -12.88Z" id="b300mU5u9q"></path><path d="M-27.85 -11.7L-25.87 -11.7L-25.87 -5.41L-27.85 -5.41L-27.85 -11.7Z" id="e1Z6icsPa"></path><path d="M-80.07 -14.45L-79.32 -14.45L-79.32 -12.38L-80.07 -12.38L-80.07 -14.45Z" id="aLHh2MpYk"></path><path d="M-80.07 -21.05L-79.32 -21.05L-79.32 -18.97L-80.07 -18.97L-80.07 -21.05Z" id="f3T2JZh1wB"></path><path d="M-80.69 -19.86L-78.71 -19.86L-78.71 -13.57L-80.69 -13.57L-80.69 -19.86Z" id="b1MMO11zjo"></path><path d="M-73.25 -13.34L-72.49 -13.34L-72.49 -11.26L-73.25 -11.26L-73.25 -13.34Z" id="dzMLOrolE"></path><path d="M-73.25 -19.93L-72.49 -19.93L-72.49 -17.86L-73.25 -17.86L-73.25 -19.93Z" id="g3CJbLhGUK"></path><path d="M-73.86 -18.74L-71.88 -18.74L-71.88 -12.46L-73.86 -12.46L-73.86 -18.74Z" id="b6S0k34tB"></path><path d="M-69.61 -17.02L-68.86 -17.02L-68.86 -14.94L-69.61 -14.94L-69.61 -17.02Z" id="a4p9bI4F6M"></path><path d="M-69.61 -23.62L-68.86 -23.62L-68.86 -21.54L-69.61 -21.54L-69.61 -23.62Z" id="axE85Jgjp"></path><path d="M-70.23 -22.43L-68.24 -22.43L-68.24 -16.14L-70.23 -16.14L-70.23 -22.43Z" id="b2IuK3hEt1"></path><path d="M-3 -1.17L49.67 -1.17L49.67 50.67L-3 50.67L-3 -1.17Z" id="h410zC9vme"></path><path d="M5 5L43 5L43 43L5 43L5 5Z" id="a2CJcUVZO8"></path><path d="M17.33 23.95L20.86 26.91L11.53 38.03L8 35.07L17.33 23.95Z" id="bDIqjqcEX"></path><path d="M39.88 16.18L39.75 22.39L34.09 18.43L28.42 14.48L34.21 12.22L40 9.97L39.88 16.18Z" id="e8uj2Z38O"></path><path d="M33.88 14.11L37.41 17.07L28.08 28.19L24.55 25.23L33.88 14.11Z" id="b5OODbZN33"></path><path d="M17.08 24.21L19.96 20.62L28.66 27.58L25.78 31.18L17.08 24.21Z" id="d2DfMsqTQ"></path></defs><g><g><g><g><use xlink:href="#iVvpeyPGQ" opacity="1" fill-opacity="0" stroke="#000000" stroke-width="1" stroke-opacity="1"></use></g></g><g><g><use xlink:href="#c2Kh0eRMl0" opacity="1" fill="#000000" fill-opacity="1"></use></g><g><use xlink:href="#apIUNi7Ko" opacity="1" fill="#000000" fill-opacity="1"></use></g><g><use xlink:href="#a1FAZJ8qgx" opacity="1" fill="#5eff06" fill-opacity="1"></use></g></g><g><g><use xlink:href="#bcT14wQ5V" opacity="1" fill="#000000" fill-opacity="1"></use></g><g><use xlink:href="#lfeNC9xeK" opacity="1" fill="#000000" fill-opacity="1"></use></g><g><use xlink:href="#ay5WFyik" opacity="1" fill="#5eff06" fill-opacity="1"></use></g></g><g><g><use xlink:href="#i26GBQSKpJ" opacity="1" fill="#000000" fill-opacity="1"></use></g><g><use xlink:href="#b300mU5u9q" opacity="1" fill="#000000" fill-opacity="1"></use></g><g><use xlink:href="#e1Z6icsPa" opacity="1" fill="#9f0d0d" fill-opacity="1"></use></g></g><g><g><use xlink:href="#aLHh2MpYk" opacity="1" fill="#000000" fill-opacity="1"></use></g><g><use xlink:href="#f3T2JZh1wB" opacity="1" fill="#000000" fill-opacity="1"></use></g><g><use xlink:href="#b1MMO11zjo" opacity="1" fill="#5eff06" fill-opacity="1"></use></g></g><g><g><use xlink:href="#dzMLOrolE" opacity="1" fill="#000000" fill-opacity="1"></use></g><g><use xlink:href="#g3CJbLhGUK" opacity="1" fill="#000000" fill-opacity="1"></use></g><g><use xlink:href="#b6S0k34tB" opacity="1" fill="#9f0d0d" fill-opacity="1"></use></g></g><g><g><use xlink:href="#a4p9bI4F6M" opacity="1" fill="#000000" fill-opacity="1"></use></g><g><use xlink:href="#axE85Jgjp" opacity="1" fill="#000000" fill-opacity="1"></use></g><g><use xlink:href="#b2IuK3hEt1" opacity="1" fill="#5eff06" fill-opacity="1"></use></g></g><g><use xlink:href="#h410zC9vme" opacity="1" fill="#004657" fill-opacity="1"></use></g><g><use xlink:href="#a2CJcUVZO8" opacity="1" fill="#0f767d" fill-opacity="1"></use><g><use xlink:href="#a2CJcUVZO8" opacity="1" fill-opacity="0" stroke="#0b3c70" stroke-width="0" stroke-opacity="1"></use></g></g><g><g><use xlink:href="#bDIqjqcEX" opacity="1" fill="#17cebf" fill-opacity="1"></use></g><g><use xlink:href="#e8uj2Z38O" opacity="1" fill="#17cebf" fill-opacity="1"></use></g><g><use xlink:href="#b5OODbZN33" opacity="1" fill="#17cebf" fill-opacity="1"></use></g><g><use xlink:href="#d2DfMsqTQ" opacity="1" fill="#17cebf" fill-opacity="1"></use></g></g></g></g></svg>